<?xml version="1.0" encoding="utf-8"?>
<!-- Generator: Adobe Illustrator 26.5.0, SVG Export Plug-In . SVG Version: 6.00 Build 0)  -->
<svg version="1.0" id="Layer_1" xmlns="http://www.w3.org/2000/svg" xmlns:xlink="http://www.w3.org/1999/xlink" x="0px" y="0px"
	 viewBox="0 0 498 97.5" style="enable-background:new 0 0 498 97.5;" xml:space="preserve">
<style type="text/css">
	.st0{fill:#F15A24;}
	.st1{fill:#FF9714;}
</style>
<circle cx="49.5" cy="12" r="10.5"/>
<path d="M69.25,83.25c-28.37,0-53.3-14.64-67.71-36.77c-0.02,0.59-0.04,1.17-0.04,1.77C1.5,74.9,23.1,96.5,49.75,96.5
	c13.6,0,25.88-5.64,34.65-14.69C79.49,82.74,74.43,83.25,69.25,83.25z"/>
<path class="st0" d="M70.74,16.5C64.5,28.37,55.28,38.43,44.09,45.7c-3.71-3.65-7.07-7.68-10.01-12.03
	c0.63,0.03,1.26,0.04,1.89,0.04C50.15,33.71,62.76,26.96,70.74,16.5z"/>
<path class="st1" d="M41.97,52.28C40,52.43,38.01,52.5,36,52.5c-7.12,0-14.02-0.94-20.58-2.69c-4.48-4.23-8.46-8.98-11.86-14.14
	C4.19,23.68,9.09,12.83,16.78,4.61C19.4,23.41,28.6,40.1,41.97,52.28z"/>
<path d="M99.47,26.87C86.21,41.25,67.72,50.73,47.01,52.28C65.22,41.49,78.8,23.71,84.09,2.64C91.3,9.02,96.71,17.38,99.47,26.87z"
	/>
<g>
	<path class="st0" d="M98.87,34.43C84.33,50.44,63.34,60.5,40,60.5c-6.57,0-12.96-0.81-19.07-2.32C35.01,70.81,53.6,78.5,74,78.5
		c4.95,0,9.78-0.47,14.48-1.34C95.41,67.55,99.5,55.76,99.5,43C99.5,40.09,99.28,37.23,98.87,34.43z"/>
</g>
<path d="M141.59,36.53V50.5h20.68v3.96h-20.68v17.59h-5.13v-39.1h25.81v3.57H141.59z M174.32,72.05v-39.1h-5.13v39.1H174.32z
	 M206.5,72.5l-10.81-16.13c-0.92,0.1-7.48,0.18-7.48,0.18V72.5h-4.78V32.95h13.39c3.03,0,5.64,0.47,7.82,1.41
	c2.18,0.94,3.86,2.29,5.03,4.05c1.18,1.76,1.76,3.89,1.76,6.39c0,2.44-0.59,4.53-1.76,6.29c-1.18,1.76-3.85,4.11-6.03,5.05
	c-0.44,0.19-0.92,0.35-1.39,0.5L213,72.5H206.5z M204.31,50.4c1.79-1.4,2.69-3.36,2.69-5.88c0-2.55-0.9-4.53-2.69-5.93
	c-1.8-1.4-4.42-2.1-7.88-2.1h-8.22v16h8.22C199.89,52.5,202.51,51.8,204.31,50.4z M245,36.53v-3.57h-24.81v39.1H245v-3.58h-20.99
	V53.96H245v-3.52h-20.99V36.53H245z M275.59,43.99l4.62-5.91c0,0-10.1-9.91-23.27-3.32c-9.97,4.99-7.39,18.65,4.8,20.87
	c5.62,1.02,9.76,2.15,10.8,4.34c0.94,1.97-0.68,5.45-6.37,5.26c-8.4-0.28-12.1-5.08-12.1-5.08l-4.32,5.96c0,0,6.53,6.24,15.59,6.39
	c7.3,0.12,15.51-2.55,15.51-13.27c0-8.87-10.51-10.27-15.14-11.45c-1.83-0.47-4.63-0.75-5.91-2.4c-1.29-1.66-1.25-5.14,4.99-5.54
	C270.14,39.49,275.59,43.99,275.59,43.99z M304.32,72.05V40.33H316v-7.37h-31v7.37h11.27v31.73H304.32z M412.32,72.05V40.33H424
	v-7.37h-31v7.37h11.27v31.73H412.32z M342.84,65.68h-17.11l-2.48,6.38h-9.27l14.37-39.1h10.94l14.54,39.1h-8.49L342.84,65.68z
	 M340,58.5l-6.21-16.6L328,58.5H340z M380.1,72.05L373,58.5c-0.12,0-6.38,0-6.38,0v13.55h-8.34v-39.1h15.5
	c3.21,0,5.97,0.57,8.29,1.7c2.32,1.14,4.11,2.76,5.37,4.89c1.26,2.12,2.02,4.64,1.89,7.54C389,54.5,383.32,56.4,381,57.5
	c-0.02,0.01,9,14.55,9,14.55H380.1z M373.32,40.33h-6.7V50.9h6.7c2.52,0,7.68,0.6,7.68-5.4C381,40.5,375.84,40.33,373.32,40.33z
	 M438.03,64.79v-9.05h19.15v-7.09h-19.15v-8.43H458v-7.26h-27.96v39.1H458v-7.26H438.03z M485.99,72.5c0,0-7.36-14.45-7.49-14.45
	h-6.16V72.5h-8.44V32.95h15.69c3.24,0,6.04,0.53,8.39,1.58c2.35,1.05,4.16,2.56,5.44,4.53c1.28,1.97,1.92,4.3,1.92,6.99
	c0,2.73-0.64,5.07-1.92,7.02c-1.28,1.95-3.09,3.44-5.44,4.45c-0.02,0.01-0.04,0.01-0.05,0.02L496,72.5H485.99z M479.56,40.33H473
	V51.5h6.56c2.47,0,4.34-0.49,5.61-1.47c1.27-0.98,1.9-2.36,1.9-4.14c0-1.78-0.63-3.15-1.9-4.11
	C483.9,40.81,482.03,40.33,479.56,40.33z"/>
<g>
</g>
<g>
</g>
<g>
</g>
<g>
</g>
<g>
</g>
<g>
</g>
<g>
</g>
<g>
</g>
<g>
</g>
<g>
</g>
<g>
</g>
<g>
</g>
<g>
</g>
<g>
</g>
<g>
</g>
</svg>
