<?xml version="1.0" encoding="utf-8"?>
<!-- Generator: Adobe Illustrator 27.0.1, SVG Export Plug-In . SVG Version: 6.00 Build 0)  -->
<svg version="1.1" id="Layer_1" xmlns="http://www.w3.org/2000/svg" xmlns:xlink="http://www.w3.org/1999/xlink" x="0px" y="0px"
	 viewBox="0 0 512 512" style="enable-background:new 0 0 512 512;" xml:space="preserve">
<style type="text/css">
	.st0{fill:#EB6100;}
</style>
<path class="st0" d="M184.3,142.4l-65.1-75.8c-1.4-1.6-3.4-2.5-5.6-2.5s-4.2,0.9-5.6,2.5l-65.1,75.8c-1.9,2.2-2.3,5.2-1.1,7.9
	c1.2,2.6,3.8,4.3,6.6,4.3H78V262h14.6V147.2c0-4-3.3-7.3-7.3-7.3h-21l49.3-57.3l49.2,57.3h-20.9c-4,0-7.3,3.3-7.3,7.3V192h14.6
	v-37.5h29.6c2.9,0,5.5-1.6,6.6-4.3C186.6,147.6,186.1,144.5,184.3,142.4z"/>
<path class="st0" d="M353.9,142.4l65.1-75.8c1.4-1.6,3.4-2.5,5.6-2.5s4.2,0.9,5.6,2.5l65.1,75.8c1.9,2.2,2.3,5.2,1.1,7.9
	c-1.2,2.6-3.8,4.3-6.6,4.3h-29.6V262h-14.6V147.2c0-4,3.3-7.3,7.3-7.3h21l-49.3-57.3l-49.2,57.3h20.9c4,0,7.3,3.3,7.3,7.3V192H389
	v-37.5h-29.6c-2.9,0-5.5-1.6-6.6-4.3C351.6,147.6,352,144.5,353.9,142.4z"/>
<path d="M322.1,82.2l-60.9-70.9C259.9,9.8,258,9,256,9c-2,0-3.9,0.8-5.2,2.4l-60.9,70.9c-1.8,2.1-2.1,4.9-1.1,7.3
	c1.1,2.4,3.5,4,6.2,4h27.7V194h13.7V86.7c0-3.7-3.1-6.8-6.8-6.8H210l46-53.5l45.9,53.5h-19.6c-3.7,0-6.8,3.1-6.8,6.8V194h13.7V93.5
	h27.7c2.7,0,5.1-1.5,6.2-4C324.2,87.1,323.8,84.2,322.1,82.2z"/>
<path d="M404.7,223.3c-1.3-2.4-3.9-4-6.7-4h-37.1c-23.2,0-42.5,4.2-55.9,12.2c-13.4,8-20.8,19.8-20.8,33.2c0,5.8,1.1,11.6,3,17
	L263,295.3v-38.8c0-3.9-3.1-7-7-7s-7,3.1-7,7v38.8l-24.3-13.6c2-5.5,3.1-11.4,3.1-17.3c0-13.4-7.4-25.1-20.8-33.2
	c-13.4-8-32.7-12.2-55.9-12.2H114c-2.8,0-5.4,1.5-6.7,4c-1.3,2.4-1.2,5.4,0.2,7.8c0.2,0.3,0.6,1,1.1,1.8
	c24.6,40.9,47.9,66.8,67.2,74.9c4.5,1.9,9.1,2.8,13.5,2.8c6.3,0,12.5-1.9,18.1-5.6c4.1-2.7,7.7-6.4,10.7-10.6l30.8,17.3V328H140.3
	v44.9h22.1L185.9,510h141.5L352,372.9h19.7V328H263v-16.6l30.6-17.2c3.1,4.3,6.7,8.1,10.9,10.8c5.6,3.7,11.7,5.6,18.1,5.6
	c4.5,0,9-0.9,13.5-2.8c19.3-8.1,42.6-34,67.2-74.9c0.5-0.9,0.9-1.5,1.1-1.8C406,228.7,406.1,225.7,404.7,223.3z M199.7,293.1
	c-5.7,3.8-11.9,4.3-18.4,1.5c-9-3.8-27.9-16.8-56-61.6h25.8c38.1,0,62.7,12.3,62.7,31.4c0,3.5-0.5,7-1.5,10.3l-25.7-14.4
	c-3.4-1.9-7.6-0.7-9.5,2.7c-1.9,3.4-0.7,7.6,2.7,9.5l26.2,14.7C204.1,289.6,202,291.6,199.7,293.1z M315.6,496H197.7l-21.1-123.1
	h161.2L315.6,496z M357.7,358.9h-3.2H160h-5.7V342h203.4V358.9z M330.7,294.9c-6.6,2.8-12.8,2.3-18.4-1.5c-2.3-1.6-4.5-3.6-6.3-6
	l26.4-14.8c3.4-1.9,4.6-6.2,2.7-9.5c-1.9-3.4-6.2-4.6-9.5-2.7l-25.8,14.5c-0.9-3.3-1.5-6.7-1.5-10.1c0-19.1,24.6-31.4,62.7-31.4
	h25.8C358.6,278.1,339.7,291.1,330.7,294.9z"/>
</svg>
