<?xml version="1.0" encoding="utf-8"?>
<!-- Generator: Adobe Illustrator 27.0.1, SVG Export Plug-In . SVG Version: 6.00 Build 0)  -->
<svg version="1.1" id="Layer_1" xmlns="http://www.w3.org/2000/svg" xmlns:xlink="http://www.w3.org/1999/xlink" x="0px" y="0px"
	 viewBox="0 0 512 512" style="enable-background:new 0 0 512 512;" xml:space="preserve">
<style type="text/css">
	.st0{fill:#EB6100;}
	.st1{fill:#FFFFFF;}
</style>
<g>
	<path class="st0" d="M405.7,400.2H106.3C47.6,400.2,0,352.5,0,293.9V106.3C0,47.6,47.6,0,106.3,0h299.5C464.4,0,512,47.6,512,106.3
		v187.5C512,352.4,464.4,400.2,405.7,400.2z"/>
</g>
<g>
	<line class="st0" x1="6.9" y1="454.9" x2="505.1" y2="454.9"/>
	<path d="M505.1,461.9H6.9c-3.8,0-6.9-3.1-6.9-6.9c0-3.8,3.1-6.9,6.9-6.9h498.2c3.8,0,6.9,3.1,6.9,6.9
		C512,458.8,508.9,461.9,505.1,461.9z"/>
</g>
<circle class="st0" cx="256" cy="461.9" r="41.8"/>
<path class="st1" d="M302.3,174.3L247.5,134c-14.3-10.5-34.3-7.4-44.8,6.9c-4,5.5-6.2,12.1-6.2,18.9v80.4c0,17.7,14.3,32,31.9,32
	c6.8,0,13.5-2.2,19-6.2l54.8-40.2c14.3-10.4,17.3-30.5,6.9-44.7C307.3,178.5,305,176.2,302.3,174.3L302.3,174.3z M291.6,211.3
	l-54.8,40.2c-6.2,4.6-14.9,3.2-19.5-3c-1.8-2.4-2.7-5.3-2.7-8.3v-80.4c-0.1-5.3,2.9-10.1,7.6-12.4c2-1,4.1-1.5,6.3-1.5
	c3,0,5.8,1,8.2,2.7l54.8,40.2c6.2,4.6,7.6,13.3,3,19.5C293.8,209.5,292.8,210.5,291.6,211.3L291.6,211.3z"/>
</svg>
