<?xml version="1.0" encoding="utf-8"?>
<!-- Generator: Adobe Illustrator 26.5.0, SVG Export Plug-In . SVG Version: 6.00 Build 0)  -->
<svg version="1.0" id="Layer_1" xmlns="http://www.w3.org/2000/svg" xmlns:xlink="http://www.w3.org/1999/xlink" x="0px" y="0px"
	 viewBox="0 0 512 512" style="enable-background:new 0 0 512 512;" xml:space="preserve">
<style type="text/css">
	.st0{fill:#EB6100;}
	.st1{fill:#FF9714;}
</style>
<circle cx="250.78" cy="62.69" r="54.86"/>
<path d="M353.96,434.94c-148.21,0-278.48-76.49-353.73-192.08C0.12,245.92,0,248.99,0,252.08C0,391.3,112.86,504.16,252.08,504.16
	c71.06,0,135.2-29.45,181.03-76.75C407.46,432.29,381.02,434.94,353.96,434.94z"/>
<path class="st0" d="M361.73,86.2c-32.59,62.01-80.74,114.57-139.21,152.56c-19.4-19.1-36.96-40.14-52.31-62.83
	c3.29,0.15,6.57,0.21,9.86,0.21C254.19,176.14,320.05,140.87,361.73,86.2z"/>
<path class="st1" d="M211.44,273.14c-10.29,0.78-20.69,1.15-31.19,1.15c-37.2,0-73.25-4.91-107.52-14.05
	c-23.41-22.1-44.2-46.92-61.96-73.87c3.29-62.64,28.89-119.33,69.07-162.27C93.52,122.31,141.58,209.5,211.44,273.14z"/>
<path d="M511.84,140.38c-69.28,75.13-165.88,124.66-274.08,132.75c95.14-56.37,166.09-149.26,193.72-259.34
	C469.16,47.12,497.42,90.8,511.84,140.38z"/>
<path class="st0" d="M508.7,179.87c-75.98,83.67-185.63,136.21-307.56,136.21c-34.35,0-67.7-4.25-99.62-12.11
	c73.53,65.98,170.69,106.15,277.25,106.15c25.84,0,51.09-2.48,75.63-7c36.2-50.22,57.6-111.83,57.6-178.47
	C512,209.44,510.85,194.49,508.7,179.87z"/>
<g>
</g>
<g>
</g>
<g>
</g>
<g>
</g>
<g>
</g>
<g>
</g>
<g>
</g>
<g>
</g>
<g>
</g>
<g>
</g>
<g>
</g>
<g>
</g>
<g>
</g>
<g>
</g>
<g>
</g>
</svg>
