<?xml version="1.0" encoding="utf-8"?>
<!-- Generator: Adobe Illustrator 27.0.1, SVG Export Plug-In . SVG Version: 6.00 Build 0)  -->
<svg version="1.1" id="Layer_1" xmlns="http://www.w3.org/2000/svg" xmlns:xlink="http://www.w3.org/1999/xlink" x="0px" y="0px"
	 viewBox="0 0 512 512" style="enable-background:new 0 0 512 512;" xml:space="preserve">
<style type="text/css">
	.st0{fill:#EB6100;}
</style>
<g>
	<path d="M1786,23l-18-3.1c-1.1-0.2-1.8-1.2-1.6-2.3l9.4-48.2c1.2-6.3,4.6-12,9.5-15.8c12.7-10,31.3-9.3,43.3,1.6
		c4.2,3.8,7,9.2,8,15l8.1,47.4c0.2,1.1-0.5,2.1-1.6,2.3l-17.6,3.1l1,5.9l22.7-4c1.5-0.3,2.6-1.7,2.3-3.3l-8.9-52.4
		c-1.2-7.2-4.7-13.7-9.9-18.4c-14.1-12.9-36-13.7-51-1.9c-6,4.7-10.2,11.6-11.7,19.4l-10.4,53.3c-0.3,1.6,0.7,3.1,2.3,3.3l23.2,4
		L1786,23z"/>
	<path d="M1874.4,81.3c-0.2-0.7-4.1-16.4-9.1-28.4c-4.9-11.6-15.1-13.6-35.6-17.5l-0.7-0.1l-6.2-7.2c-0.2-0.2-0.3-0.3-0.5-0.5
		l2.1-9.3c4.9-4,8.1-10.1,8.1-16.9V-9c0,0,0,0,0,0c1.6,0,2.9-1.2,3-2.8c0.1-1.7-1.2-3.1-2.8-3.2c-18.2-1.1-26.6-9-30.3-14.9
		c-0.1-0.5-0.4-0.9-0.7-1.2c-1.6-2.9-2.1-5.2-2.2-5.4c-0.3-1.6-1.9-2.7-3.5-2.4c-1.6,0.3-2.7,1.9-2.4,3.5c0.1,0.3,0.5,2.7,2.1,5.9
		c-1.3,1.1-2.8,2.1-4.3,3.1c-4.6,3.1-9.9,6.7-9.9,14V1.4c0,7.5,3.8,14.1,9.6,18l1.5,7.8c-0.5,0.2-1,0.5-1.4,0.9l-6,7
		c-0.1,0-0.2,0-0.3,0l-1.6,0.3c-20.4,3.9-30.7,5.8-35.6,17.5c-5,12.1-9,27.8-9.1,28.4c-0.4,1.6,0.6,3.2,2.2,3.6
		c0.2,0.1,0.5,0.1,0.7,0.1c1.3,0,2.6-0.9,2.9-2.3c0-0.2,4-15.9,8.9-27.6c3.2-7.8,10.1-9.8,25.7-12.8L1766.2,57
		c-0.8,0.9-0.9,2.1-0.5,3.2c0.5,1.1,1.6,1.8,2.7,1.8h10.6l8.7,18.3c0.5,1.1,1.6,1.7,2.7,1.7c0.4,0,0.9-0.1,1.3-0.3
		c1.5-0.7,2.1-2.5,1.4-4l-9.5-20c-0.5-1-1.6-1.7-2.7-1.7h-6l18.9-21.9l9.6,50.5c0.3,1.4,1.5,2.4,2.9,2.4c0,0,0,0,0,0
		c1.4,0,2.6-1,2.9-2.3l11.2-49.9L1839,56h-6c-1.2,0-2.2,0.7-2.7,1.7l-9.5,20c-0.7,1.5-0.1,3.3,1.4,4c0.4,0.2,0.9,0.3,1.3,0.3
		c1.1,0,2.2-0.6,2.7-1.7l8.7-18.3h10.6c1.2,0,2.2-0.7,2.7-1.8c0.5-1.1,0.3-2.3-0.5-3.2l-12.5-14.5c14.7,2.9,21.3,5,24.5,12.6
		c4.9,11.6,8.8,27.4,8.9,27.6c0.3,1.4,1.6,2.3,2.9,2.3c0.2,0,0.5,0,0.7-0.1C1873.8,84.5,1874.8,82.9,1874.4,81.3z M1806.7,69.3
		l-9-46.9c1.7,0.4,3.5,0.7,5.3,0.7c1.7,0,3-1.3,3-3s-1.3-3-3-3c-8.6,0-15.6-7-15.6-15.6v-13.8c0-3.9,2.6-5.9,7.2-9
		c1.4-0.9,2.8-1.9,4.1-3c4.5,6,12.8,12.6,27.6,14.8v11c0,8.6-7,15.6-15.6,15.6c-1.7,0-3,1.3-3,3s1.3,3,3,3c2.3,0,4.4-0.4,6.5-1
		L1806.7,69.3z"/>
</g>
<path class="st0" d="M1778-58.4c-0.4,0.3-0.8,0.6-1.3,1c-1.9,1.5-3.7,3.2-5.3,5.1c-2.2-0.8-4.5-1.6-7-2.3
	c-13.8-3.8-25.3-3.3-25.5-3.3c-1.1,0-2.2-0.3-3-1.1c-0.8-0.8-1.3-1.8-1.3-3v-11.7l-31.9,27.4l31.9,27.4v-11.7c0-1.2,0.5-2.3,1.4-3.1
	c0.9-0.8,2.1-1.1,3.2-1c0.7,0.1,14,1.9,22.4,3.7l-1.6,8c-5.1-1.1-12.5-2.2-17.3-2.9v15.8c0,1.6-0.9,3-2.4,3.7
	c-0.5,0.2-1.1,0.4-1.7,0.4c-0.9,0-1.9-0.3-2.6-1l-42.2-36.2c-0.9-0.8-1.4-1.9-1.4-3.1c0-1.2,0.5-2.3,1.4-3.1l42.2-36.2
	c1.2-1,2.9-1.3,4.3-0.6c1.4,0.7,2.4,2.1,2.4,3.7v16.5c5,0.1,13.8,0.8,23.8,3.6C1770.8-61.3,1774.6-59.8,1778-58.4z M1846.5-102.4
	l-36.2-42.2c-0.8-0.9-1.9-1.4-3.1-1.4c-1.2,0-2.3,0.5-3.1,1.4l-36.2,42.2c-1,1.2-1.3,2.9-0.6,4.3c0.7,1.5,2.1,2.4,3.7,2.4h16.5v32
	c2.6-1.1,5.3-2,8.1-2.6v-33.5c0-2.2-1.8-4.1-4.1-4.1h-11.7l27.4-31.9l27.4,31.9h-11.7c-2.2,0-4.1,1.8-4.1,4.1v34
	c2.8,0.8,5.5,1.8,8.1,3.1v-33h16.5c1.6,0,3-0.9,3.7-2.4C1847.8-99.5,1847.5-101.2,1846.5-102.4z M1919.2-49.4L1877-85.6
	c-1.2-1-2.9-1.3-4.3-0.6c-1.4,0.7-2.4,2.1-2.4,3.7v16.5c-5,0.1-13.8,0.8-23.8,3.6c-4.5,1.2-8.4,2.9-11.7,4.6
	c1.1,0.9,2.2,1.8,3.3,2.8c1.1,1,2.1,2.1,3.1,3.2c2.2-1,4.8-2,7.5-2.7c13.8-3.8,25.3-3.3,25.5-3.3c1.1,0,2.2-0.3,3-1.1s1.3-1.8,1.3-3
	v-11.7l31.9,27.4l-31.9,27.4v-11.7c0-1.2-0.5-2.3-1.4-3.1c-0.9-0.8-2.1-1.1-3.2-1c-0.7,0.1-14.8,2-23.1,3.8l1.4,8
	c5.1-1.1,13.2-2.4,18.2-3.1v15.8c0,1.6,0.9,3,2.4,3.7c0.5,0.2,1.1,0.4,1.7,0.4c0.9,0,1.9-0.3,2.6-1l42.2-36.2
	c0.9-0.8,1.4-1.9,1.4-3.1C1920.6-47.5,1920.1-48.6,1919.2-49.4z"/>
<g>
	<g>
		<path d="M211,371.5l-39.5-6.9c-2.4-0.4-4-2.7-3.5-5.1l20.7-105.8c2.7-13.9,10.1-26.3,20.9-34.7c28-22,68.9-20.4,95.1,3.6
			c9.2,8.4,15.4,20.1,17.6,33L340,359.6c0.4,2.4-1.2,4.6-3.5,5l-38.8,6.9l2.3,13l49.9-8.9c3.4-0.6,5.6-3.8,5-7.2l-19.7-115.2
			c-2.7-15.8-10.4-30.1-21.7-40.5c-30.9-28.3-79.1-30.2-112.1-4.2c-13.2,10.4-22.4,25.5-25.7,42.6l-22.9,117.2
			c-0.7,3.4,1.6,6.7,5,7.3l50.9,8.9L211,371.5z"/>
		<path d="M405.2,499.4c-0.4-1.5-9-35.9-20.1-62.5c-10.7-25.6-33.2-29.9-78.1-38.4l-1.6-0.3l-13.6-15.8c-0.3-0.4-0.7-0.7-1.1-1
			l4.6-20.5c10.9-8.7,17.9-22.1,17.9-37.1V301c0,0,0,0,0,0c3.5,0,6.4-2.7,6.6-6.2c0.2-3.6-2.5-6.8-6.2-7
			c-40-2.5-58.4-19.7-66.6-32.7c-0.3-1-0.8-1.9-1.6-2.7c-3.6-6.4-4.7-11.4-4.8-12c-0.7-3.6-4.1-5.9-7.7-5.3c-3.6,0.7-6,4.1-5.3,7.7
			c0.1,0.7,1.2,5.9,4.7,13c-2.9,2.5-6.2,4.7-9.4,6.9c-10.2,6.9-21.7,14.7-21.7,30.8v30.3c0,16.4,8.4,30.9,21.1,39.5l3.3,17.1
			c-1.1,0.4-2.2,1-3,2l-13.2,15.4c-0.2,0-0.4,0-0.6,0.1l-3.6,0.7c-44.9,8.5-67.5,12.8-78.1,38.4c-11,26.5-19.7,61-20.1,62.5
			c-0.9,3.5,1.3,7.1,4.8,8c0.5,0.1,1.1,0.2,1.6,0.2c3,0,5.6-2,6.4-5c0.1-0.3,8.8-35,19.5-60.6c7.1-17.1,22.2-21.6,56.4-28.2
			l-27.9,32.4c-1.7,2-2.1,4.7-1,7.1c1.1,2.3,3.4,3.8,6,3.8h23.3l19.1,40.2c1.1,2.4,3.5,3.8,6,3.8c0.9,0,1.9-0.2,2.8-0.6
			c3.3-1.6,4.7-5.5,3.1-8.8l-20.9-43.9c-1.1-2.3-3.4-3.8-6-3.8h-13.1l41.5-48.1l21.2,110.9c0.6,3.1,3.2,5.3,6.4,5.4c0,0,0.1,0,0.1,0
			c3.1,0,5.8-2.1,6.4-5.1l24.7-109.6l40.2,46.6h-13.1c-2.5,0-4.9,1.5-6,3.8l-20.9,43.9c-1.6,3.3-0.2,7.2,3.1,8.8
			c0.9,0.4,1.9,0.6,2.8,0.6c2.5,0,4.8-1.4,6-3.8l19.1-40.2h23.3c2.6,0,4.9-1.5,6-3.8c1.1-2.3,0.7-5.1-1-7.1l-27.5-31.8
			c32.3,6.4,46.8,11,53.7,27.7c10.7,25.6,19.4,60.2,19.5,60.6c0.7,3,3.4,5,6.4,5c0.5,0,1.1-0.1,1.6-0.2
			C404,506.5,406.1,502.9,405.2,499.4z M256.5,473l-19.7-103.1c3.7,1,7.7,1.5,11.7,1.5c3.6,0,6.6-3,6.6-6.6c0-3.6-3-6.6-6.6-6.6
			c-18.9,0-34.3-15.4-34.3-34.3v-30.3c0-8.7,5.8-13,15.9-19.9c3-2,6.1-4.2,9-6.5c10,13.2,28.1,27.6,60.7,32.5v24.2
			c0,18.9-15.4,34.3-34.3,34.3c-3.6,0-6.6,3-6.6,6.6c0,3.6,3,6.6,6.6,6.6c5,0,9.8-0.8,14.3-2.2L256.5,473z"/>
	</g>
	<path class="st0" d="M193.3,192.6c-0.9,0.7-1.9,1.4-2.8,2.1c-4.3,3.4-8.2,7.1-11.8,11.2c-4.7-1.8-9.8-3.6-15.4-5.1
		c-30.3-8.4-55.7-7.3-55.9-7.3c-2.5,0.1-4.9-0.8-6.6-2.5c-1.8-1.7-2.8-4-2.8-6.5v-25.6l-70,60.1l70,60.2v-25.6
		c0-2.6,1.1-5.1,3.1-6.7c1.9-1.7,4.5-2.5,7.1-2.1c1.5,0.2,30.8,4.2,49.2,8.1l-3.4,17.5c-11.2-2.4-27.6-4.9-38.1-6.5v34.8
		c0,3.5-2,6.7-5.2,8.1c-1.2,0.5-2.5,0.8-3.7,0.8c-2.1,0-4.2-0.7-5.8-2.2L8.5,225.9c-2-1.7-3.1-4.2-3.1-6.8c0-2.6,1.1-5.1,3.1-6.8
		l92.7-79.6c2.7-2.3,6.4-2.8,9.6-1.3c3.2,1.5,5.2,4.6,5.2,8.1v36.2c10.9,0.3,30.3,1.8,52.2,7.9C177.6,186.1,186,189.3,193.3,192.6z
		 M343.9,95.8L264.3,3.1c-1.7-2-4.2-3.1-6.8-3.1c-2.6,0-5.1,1.1-6.8,3.1l-79.6,92.7c-2.3,2.7-2.8,6.4-1.4,9.6
		c1.5,3.2,4.6,5.2,8.1,5.2h36.2v70.3c5.8-2.4,11.7-4.4,17.9-5.7v-73.5c0-4.9-4-8.9-8.9-8.9h-25.7l60.2-70l60.1,70H292
		c-4.9,0-8.9,4-8.9,8.9v74.8c6.2,1.7,12.2,4,17.9,6.7v-72.6h36.2c3.5,0,6.7-2,8.1-5.2C346.7,102.2,346.2,98.4,343.9,95.8z
		 M503.5,212.3l-92.7-79.6c-2.7-2.3-6.4-2.8-9.6-1.3c-3.2,1.5-5.2,4.6-5.2,8.1v36.2c-10.9,0.3-30.3,1.8-52.2,7.9
		c-9.9,2.7-18.5,6.4-25.8,10.2c2.5,1.9,4.9,3.9,7.3,6.1c2.4,2.2,4.7,4.5,6.7,7c4.9-2.2,10.5-4.3,16.5-6c30.3-8.4,55.7-7.3,55.9-7.3
		c2.5,0.1,4.8-0.8,6.6-2.5c1.8-1.7,2.8-4,2.8-6.5v-25.6l70,60.1l-70,60.2v-25.6c0-2.6-1.1-5.1-3.1-6.7c-1.9-1.7-4.5-2.5-7.1-2.1
		c-1.5,0.2-32.6,4.5-50.8,8.4l3,17.6c11.1-2.5,28.9-5.3,40.1-6.9v34.8c0,3.5,2,6.7,5.2,8.1c1.2,0.5,2.5,0.8,3.7,0.8
		c2.1,0,4.2-0.7,5.8-2.2l92.7-79.6c2-1.7,3.1-4.2,3.1-6.8C506.7,216.5,505.5,214,503.5,212.3z"/>
</g>
</svg>
