<?xml version="1.0" encoding="utf-8"?>
<!-- Generator: Adobe Illustrator 27.0.1, SVG Export Plug-In . SVG Version: 6.00 Build 0)  -->
<svg version="1.1" id="Layer_1" xmlns="http://www.w3.org/2000/svg" xmlns:xlink="http://www.w3.org/1999/xlink" x="0px" y="0px"
	 viewBox="0 0 512 512" style="enable-background:new 0 0 512 512;" xml:space="preserve">
<style type="text/css">
	.st0{fill:#EB6100;}
	.st1{fill:#FFFFFF;}
</style>
<g>
	<path d="M149.4,214.7c-5.8,0-10.5-4.7-10.5-10.5V118C138.9,53.4,191.4,0.9,256,0.9S373.1,53.4,373.1,118v27.9
		c0,5.8-4.7,10.5-10.5,10.5s-10.5-4.7-10.5-10.5V118c0-53-43.1-96.1-96.1-96.1S159.9,65,159.9,118v86.2
		C159.9,210,155.2,214.7,149.4,214.7z"/>
</g>
<g>
	<path class="st0" d="M371.4,512.4H140.6c-45.2,0-81.9-36.7-81.9-81.9V285.9c0-45.2,36.7-81.9,81.9-81.9h230.8
		c45.2,0,81.9,36.7,81.9,81.9v144.5C453.3,475.6,416.6,512.4,371.4,512.4z"/>
</g>
<path class="st1" d="M296.1,341.2c0-22.1-17.9-40.1-40.1-40.1s-40.1,17.9-40.1,40.1c0,15.5,8.8,28.9,21.6,35.6v20
	c0,10.2,8.3,18.4,18.4,18.4c10.2,0,18.4-8.3,18.4-18.4v-20C287.3,370.1,296.1,356.7,296.1,341.2z"/>
</svg>
