<?xml version="1.0" encoding="utf-8"?>
<!-- Generator: Adobe Illustrator 27.0.0, SVG Export Plug-In . SVG Version: 6.00 Build 0)  -->
<svg version="1.1" id="Layer_1" xmlns="http://www.w3.org/2000/svg" xmlns:xlink="http://www.w3.org/1999/xlink" x="0px" y="0px"
	 viewBox="0 0 787 406" style="enable-background:new 0 0 787 406;" xml:space="preserve">
<style type="text/css">
	.st0{fill:#381D16;}
	.st1{fill:#F15A24;}
	.st2{fill:#3B1D1F;}
	.st3{fill:none;stroke:#3B1D1F;stroke-miterlimit:10;}
	.st4{fill:#DE4939;}
	.st5{fill:#FF9714;}
	.st6{fill:#FFFFFF;}
	.st7{fill:#361E16;}
	.st8{fill:none;stroke:#FF9714;stroke-miterlimit:10;}
	.st9{fill:none;stroke:#361E16;stroke-miterlimit:10;}
	.st10{fill:#E1E1E1;}
	.st11{fill:#F5F5F5;}
	.st12{fill:#ECECEC;}
</style>
<path class="st0" d="M226.8,219.7c0,0-11.2-5.4-16-15c-3-6-4.3-16.3-4.4-20.4c-0.1-1.4-0.5-2.7-1.3-3.8c-4.3-6-18.7-26.4-6.8-43.3
	c14-20,10-23,11-29s7-26,23-25s13,3,13,3s13-20,28-19s26,9,32,9s29,0,36,8s4,20,7,22s24,11,24,24s-3.5,24-0.5,31.5
	s7.5,29.5-3.5,34.5s-14.5,9.5-14.5,19.5c0,7-13.5,18.5-19.5,18.5S232.8,226.7,226.8,219.7z"/>
<path class="st1" d="M274.8,192.7c0,0,18,8,32-3s21-45,17-59s-13-18-15-19s-8.4-0.4-8.4-0.4s-9.6,8.4-20.6,9.4s-17,7-18,14
	s-1,14-5,11s-5-9-11-5s-3,16-2,18s4.3,7.3,7,6c2-1,1,4.5,1,6c0,3,2,4,2,6s-4.5,40.5-4.5,40.5s15,5,20,5s18,2,23,0s6.5-7.5,6.5-9.5
	s1.7-2.4-2-5C273.8,191.7,273.8,193.7,274.8,192.7z"/>
<ellipse class="st2" cx="281.8" cy="146.2" rx="4" ry="4.5"/>
<ellipse class="st2" cx="312.3" cy="149.7" rx="4" ry="4.5"/>
<path class="st3" d="M271.3,132.2c0,0,9-4,16-1"/>
<path class="st3" d="M306.8,134.7c5-2,11-2,15,4"/>
<path class="st3" d="M279.8,165.4c0,0,2,7.3,14,6.3"/>
<path class="st3" d="M297.8,149.7c-0.1,4,3.9,12-1.1,12s-6-1-6-1"/>
<ellipse class="st4" cx="316.3" cy="161.7" rx="5" ry="5.5"/>
<ellipse class="st4" cx="270.3" cy="157.7" rx="7" ry="7.5"/>
<path class="st5" d="M452.8,340.2l-99-4c0,0,43.5-112.5-36.5-118.5c0,0-10.4-3.3-20.4-2.4s-15.1,6.9-28.1,4.9s-15-4-18-5
	s-46.2-0.9-56.1,8.5c-9.9,9.5-23.9,21.5-39.9,59.5s-30,65-28,79s13,21,13,21h313C452.8,383.2,437.8,366.2,452.8,340.2z"/>
<ellipse class="st0" cx="453.3" cy="361.7" rx="9" ry="21.5"/>
<path class="st1" d="M448.8,362.6l33.9-0.9c9-1,37,8.7,37,18h-4l-68.5-2.5c0,0-2-1-3-13C444.1,361.7,446.3,362.6,448.8,362.6z"/>
<rect x="450.3" y="376.2" class="st6" width="172" height="7"/>
<polygon class="st6" points="633.6,315.2 382.6,315.2 398,168.2 649,168.2 "/>
<polygon class="st7" points="532.3,273.2 511.9,273.2 466.8,315.2 532.3,315.2 "/>
<polygon class="st6" points="549.5,376.2 526.5,376.2 512,273.2 535,273.2 "/>
<polygon class="st0" points="203.3,335.2 192.3,335.2 211.3,295.2 "/>
<ellipse class="st0" cx="286.3" cy="361.2" rx="8" ry="22"/>
<path class="st8" d="M356.2,382.7c1.8,0,3-1.8,2.3-3.5c-5.3-11.4-15.8-16.6-37.7-17.5c-15.6-0.6-27,8.4-32.4,21H356.2z"/>
<path class="st1" d="M286.3,383.2c24.5,1.5,35.5-14.5,35.5-14.5l17,10c1.4,0.8,3.8,1.2,4.9,0.1h0c1.2-1.2,1.3-3.1,0.3-4.5l-1.2-1.6
	l1.5,1.8c1.5,1.9,4.1,2.4,6.2,1.4c0,0,2.4-1.2,0.4-3.2l-1-1c1.4,1.2,5,3,6.4,1.6v0c1.5-1.5,1.4-4-0.3-5.3
	c-7.1-5.5-22.9-14.8-25-15.3c-9.5-2.4-34,2-40,3s-12-1-12-1s-2,0,0,16C280.2,382,286.3,383.2,286.3,383.2z"/>
<line class="st9" x1="328.8" y1="357.7" x2="349.8" y2="371.7"/>
<line class="st9" x1="322.8" y1="359.7" x2="343.8" y2="373.7"/>
<g>
	<g>
		<g>
			<g>
				<g>
					<g>
						<g>
							<g>
								<g>
									
										<rect x="36.3" y="15.6" transform="matrix(-1 -1.224647e-16 1.224647e-16 -1 209.7082 174.2306)" class="st10" width="137.2" height="143"/>
								</g>
							</g>
						</g>
					</g>
				</g>
			</g>
		</g>
	</g>
	<g>
		<g>
			<g>
				<g>
					<g>
						<g>
							<g>
								<g>
									
										<rect x="45.6" y="15.6" transform="matrix(-1 -1.224647e-16 1.224647e-16 -1 228.2873 174.2306)" class="st11" width="137.2" height="143"/>
								</g>
							</g>
						</g>
					</g>
				</g>
			</g>
		</g>
		<g>
			<g>
				<g>
					<g>
						<g>
							<g>
								<g>
									<path class="st10" d="M45.5,158.7h137.3V15.6H45.5V158.7z M182.7,158.6H45.6V15.7h137.1V158.6z"/>
								</g>
							</g>
						</g>
					</g>
				</g>
			</g>
		</g>
	</g>
	<g>
		<g>
			<g>
				<g>
					<g>
						<g>
							<g>
								<g>
									
										<rect x="64" y="34.8" transform="matrix(-1 -1.224647e-16 1.224647e-16 -1 228.2875 174.2306)" class="st6" width="100.3" height="104.5"/>
								</g>
							</g>
						</g>
					</g>
				</g>
			</g>
		</g>
	</g>
	<g>
		<g>
			<g>
				<g>
					<g>
						<g>
							<g>
								<g>
									<g>
										<path class="st10" d="M164.3,140.1c-0.1,0.1,0.9,1.2,2.5,2.9c1.6,1.7,3.9,4,6.4,6.5c2.5,2.5,4.8,4.7,6.6,6.3
											c1.7,1.6,2.8,2.5,2.9,2.4c0.1-0.1-0.9-1.2-2.5-2.9c-1.6-1.7-3.9-4-6.4-6.5c-2.5-2.5-4.9-4.7-6.6-6.3
											C165.5,140.9,164.4,140,164.3,140.1z"/>
									</g>
								</g>
							</g>
						</g>
					</g>
				</g>
			</g>
		</g>
	</g>
	<g>
		<g>
			<g>
				<g>
					<g>
						<g>
							<g>
								<g>
									<g>
										<path class="st10" d="M64,139.8c-0.1-0.1-1.2,0.9-2.9,2.5c-1.7,1.6-4,3.9-6.5,6.4c-2.5,2.5-4.7,4.8-6.3,6.6
											c-1.6,1.7-2.5,2.8-2.4,2.9c0.1,0.1,1.2-0.9,2.9-2.5c1.7-1.6,4-3.9,6.5-6.4c2.5-2.5,4.7-4.9,6.3-6.6
											C63.2,141,64.1,139.9,64,139.8z"/>
									</g>
								</g>
							</g>
						</g>
					</g>
				</g>
			</g>
		</g>
	</g>
	<g>
		<g>
			<g>
				<g>
					<g>
						<g>
							<g>
								<g>
									<g>
										<path class="st10" d="M64.3,35.1c0.1-0.1-0.9-1.2-2.5-2.9c-1.6-1.7-3.9-4-6.4-6.5c-2.5-2.5-4.8-4.7-6.6-6.3
											c-1.7-1.6-2.8-2.5-2.9-2.4c-0.1,0.1,0.9,1.2,2.5,2.9s3.9,4,6.4,6.5c2.5,2.5,4.9,4.7,6.6,6.3
											C63.1,34.3,64.2,35.2,64.3,35.1z"/>
									</g>
								</g>
							</g>
						</g>
					</g>
				</g>
			</g>
		</g>
	</g>
	<g>
		<g>
			<g>
				<g>
					<g>
						<g>
							<g>
								<g>
									<g>
										<path class="st10" d="M164.6,35.4c0.1,0.1,1.2-0.9,2.9-2.5c1.7-1.6,4-3.9,6.5-6.4c2.5-2.5,4.7-4.8,6.3-6.6
											c1.6-1.7,2.5-2.8,2.4-2.9c-0.1-0.1-1.2,0.9-2.9,2.5c-1.7,1.6-4,3.9-6.5,6.4c-2.5,2.5-4.7,4.9-6.3,6.6
											C165.4,34.2,164.5,35.3,164.6,35.4z"/>
									</g>
								</g>
							</g>
						</g>
					</g>
				</g>
			</g>
		</g>
	</g>
	<g>
		<g>
			<g>
				<g>
					<g>
						<g>
							<g>
								<g>
									<g>
										<path class="st10" d="M64.3,139.4c0,0,0-0.2,0-0.5c0-0.4,0-0.8,0-1.5c0-1.3,0-3.2,0-5.6c0-5,0.1-12.2,0.1-21.3
											c0-18.3,0.1-44.4,0.2-75.6l-0.4,0.4c29.2,0,63.5,0,100,0.1h0l-0.4-0.4c0,38.4,0,74.3,0.1,104.5l0.4-0.4
											c-30,0.1-54.9,0.1-72.4,0.2c-8.7,0-15.6,0.1-20.3,0.1c-2.3,0-4.1,0-5.4,0c-0.6,0-1,0-1.4,0
											C64.4,139.4,64.3,139.4,64.3,139.4c0,0,0.1,0,0.4,0c0.3,0,0.8,0,1.3,0c1.2,0,3,0,5.3,0c4.7,0,11.6,0.1,20.3,0.1
											c17.6,0,42.6,0.1,72.7,0.2l0.4,0l0-0.4c0-30.3,0-66.2,0.1-104.5l0-0.4h-0.4h0c-36.5,0-70.8,0-100,0.1h-0.4l0,0.4
											c0.1,31.3,0.1,57.5,0.2,75.9c0,9.1,0.1,16.3,0.1,21.2c0,2.4,0,4.3,0,5.6c0,0.6,0,1.1,0,1.4
											C64.3,139.2,64.3,139.4,64.3,139.4z"/>
									</g>
								</g>
							</g>
						</g>
					</g>
				</g>
			</g>
		</g>
	</g>
	<g>
		<g>
			<g>
				<g>
					<g>
						<g>
							<g>
								<g>
									
										<rect x="97.4" y="70.4" transform="matrix(-1 -1.224647e-16 1.224647e-16 -1 228.2877 174.2304)" class="st12" width="33.5" height="33.5"/>
								</g>
							</g>
						</g>
					</g>
				</g>
			</g>
		</g>
	</g>
</g>
<rect x="26.3" y="382.2" class="st7" width="735" height="7"/>
</svg>
